<?xml version="1.0" standalone="no"?>
<!DOCTYPE svg PUBLIC "-//W3C//DTD SVG 20010904//EN"
 "http://www.w3.org/TR/2001/REC-SVG-20010904/DTD/svg10.dtd">
<svg version="1.0" xmlns="http://www.w3.org/2000/svg"
 width="500.000000pt" height="500.000000pt" viewBox="0 0 500.000000 500.000000"
 preserveAspectRatio="xMidYMid meet">
<metadata>
Created by potrace 1.14, written by Peter Selinger 2001-2017
</metadata>
<g transform="translate(0.000000,500.000000) scale(0.100000,-0.100000)"
fill="#000000" stroke="none">
<path d="M416 3418 c31 -50 128 -178 133 -175 147 81 284 124 424 134 l87 6 0
-302 0 -301 200 0 200 0 0 301 0 302 92 -7 c126 -9 205 -30 326 -87 l103 -48
64 87 c35 48 65 90 65 95 0 4 -383 7 -851 7 -677 0 -849 -3 -843 -12z"/>
<path d="M2784 3388 c9 -64 26 -378 26 -500 l0 -108 195 0 195 0 0 123 c0 130
16 427 26 490 l6 37 -227 0 -227 0 6 -42z"/>
<path d="M4133 3372 c-22 -31 -159 -177 -303 -324 -252 -258 -261 -268 -228
-268 30 0 57 24 308 279 151 153 300 299 330 325 l55 46 -60 -1 -60 0 -42 -57z"/>
<path d="M1056 1938 c-3 -172 -9 -332 -12 -355 l-6 -43 224 0 224 0 -8 63 c-4
34 -10 194 -14 355 l-7 292 -197 0 -197 0 -7 -312z"/>
<path d="M2810 2113 c0 -148 -16 -461 -26 -530 l-6 -43 227 0 227 0 -6 38
c-11 67 -26 364 -26 520 l0 152 -195 0 -195 0 0 -137z"/>
<path d="M3467 2238 c384 -492 441 -568 483 -641 l32 -57 288 0 288 0 -107
108 c-67 67 -177 198 -296 355 l-189 247 -254 0 c-202 0 -252 -3 -245 -12z"/>
</g>
</svg>
